<svg xmlns="http://www.w3.org/2000/svg" viewBox="0 0 1000 1000" width="1000" height="1000">
  <rect width="1000" height="1000" fill="#000000" />
  <circle cx="500.00" cy="500.00" r="51.00" fill="#FFFFFF" />
  <circle cx="451.95" cy="544.02" r="49.94" fill="#FFFFFF" />
  <circle cx="508.06" cy="408.19" r="48.87" fill="#FFFFFF" />
  <circle cx="568.68" cy="589.58" r="47.79" fill="#FFFFFF" />
  <circle cx="371.65" cy="477.30" r="46.71" fill="#FFFFFF" />
  <circle cx="622.95" cy="421.79" r="45.62" fill="#FFFFFF" />
  <circle cx="458.56" cy="654.16" r="44.53" fill="#FFFFFF" />
  <circle cx="420.53" cy="346.98" r="43.42" fill="#FFFFFF" />
  <circle cx="673.14" cy="563.23" r="42.31" fill="#FFFFFF" />
  <circle cx="319.28" cy="574.60" r="41.19" fill="#FFFFFF" />
  <circle cx="587.35" cy="313.34" r="40.06" fill="#FFFFFF" />
  <circle cx="564.69" cy="706.24" r="38.92" fill="#FFFFFF" />
  <circle cx="304.68" cy="386.81" r="37.77" fill="#FFFFFF" />
  <circle cx="729.49" cy="449.55" r="36.61" fill="#FFFFFF" />
  <circle cx="359.76" cy="699.48" r="35.43" fill="#FFFFFF" />
  <circle cx="467.56" cy="249.69" r="34.25" fill="#FFFFFF" />
  <circle cx="699.33" cy="667.99" r="33.05" fill="#FFFFFF" />
  <circle cx="231.53" cy="511.10" r="31.85" fill="#FFFFFF" />
  <circle cx="695.98" cy="304.97" r="30.62" fill="#FFFFFF" />
  <circle cx="486.88" cy="783.76" r="29.38" fill="#FFFFFF" />
  <circle cx="313.27" cy="276.23" r="28.13" fill="#FFFFFF" />
  <circle cx="795.98" cy="539.82" r="26.85" fill="#FFFFFF" />
  <circle cx="249.09" cy="674.58" r="25.56" fill="#FFFFFF" />
  <circle cx="568.60" cy="195.08" r="24.24" fill="#FFFFFF" />
  <circle cx="658.73" cy="777.01" r="22.91" fill="#FFFFFF" />
  <circle cx="189.57" cy="400.96" r="21.54" fill="#FFFFFF" />
  <circle cx="801.66" cy="360.63" r="20.14" fill="#FFFFFF" />
  <circle cx="369.27" cy="812.38" r="18.71" fill="#FFFFFF" />
  <circle cx="383.29" cy="175.51" r="17.23" fill="#FFFFFF" />
  <circle cx="810.66" cy="663.27" r="15.71" fill="#FFFFFF" />
  <circle cx="154.84" cy="590.98" r="14.12" fill="#FFFFFF" />
  <circle cx="696.24" cy="194.80" r="12.45" fill="#FFFFFF" />
  <circle cx="562.44" cy="863.33" r="10.67" fill="#FFFFFF" />
  <circle cx="204.01" cy="270.77" r="8.68" fill="#FFFFFF" />
  <circle cx="878.70" cy="468.63" r="6.00" fill="#FFFFFF" />
</svg>